# xmcd
#
# Track frame offsets:
#	150
#	29418
#	53963
#	74905
#	80391
#	100694
#	120839
#	138966
#
# Disc length: 2179 seconds
#
# Revision: 1
# Processed by: cddbd v1.5.2PL0 Copyright (c) Steve Scherf et al.
# Submitted via: EZCDAudioConverter 8.5.0.1
#
DISCID=67088108
DTITLE=Stereolab - Margerine Eclipse 2/2
DYEAR=2004
DGENRE=
TTITLE0=Mass Riff
TTITLE1=Good Is Me
TTITLE2=Microclimate
TTITLE3=Mass Riff [Instrumental]
TTITLE4=Jaunty Monty and The Bubbles Of Silence
TTITLE5=Banana Monster Ne Répond Plus
TTITLE6=University Microfilms International
TTITLE7=Rose, My Rocket-Brain! (Rose, Le Cerveau Electronique De Ma Fusée!)
EXTD=
EXTT0=
EXTT1=
EXTT2=
EXTT3=
EXTT4=
EXTT5=
EXTT6=
EXTT7=
PLAYORDER=
